<svg xmlns="http://www.w3.org/2000/svg" version="1.1" xmlns:xlink="http://www.w3.org/1999/xlink" xmlns:svgjs="http://svgjs.dev/svgjs" viewBox="0 0 2400 800" opacity="1"><defs><linearGradient x1="50%" y1="0%" x2="50%" y2="100%" id="sssurf-grad"><stop stop-color="#666537" stop-opacity="1" offset="0%"></stop><stop stop-color="#bab653" stop-opacity="1" offset="100%"></stop></linearGradient></defs><g fill="#bab653" transform="matrix(1,0,0,1,9.6998291015625,332.02050018310547)"><path d="M-10,10C30.544871794871796,14.583333333333332,105.60897435897436,39.916666666666664,184.6153846153846,32C263.62179487179486,24.083333333333336,292.3076923076923,-29.041666666666668,369.2307692307692,-28C446.15384615384613,-26.958333333333332,476.9230769230769,38.25,553.8461538461538,37C630.7692307692307,35.75,661.5384615384615,-32.125,738.4615384615385,-34C815.3846153846154,-35.875,846.1538461538462,27.166666666666668,923.0769230769231,28C1000,28.833333333333332,1030.7692307692307,-34.166666666666664,1107.6923076923076,-30C1184.6153846153845,-25.833333333333332,1215.3846153846155,41.333333333333336,1292.3076923076924,48C1369.2307692307693,54.666666666666664,1400,-0.916666666666667,1476.923076923077,2C1553.8461538461538,4.916666666666667,1584.6153846153845,63.25,1661.5384615384614,62C1738.4615384615383,60.75,1769.2307692307693,-3.5833333333333335,1846.1538461538462,-4C1923.076923076923,-4.416666666666667,1953.8461538461538,58.958333333333336,2030.7692307692307,60C2107.6923076923076,61.041666666666664,2138.461538461538,3.0833333333333335,2215.3846153846152,1C2292.3076923076924,-1.0833333333333335,2309.455128205128,-33.125,2400,50C2490.544871794872,133.125,3254.1666666666665,222.91666666666669,2650,400C2045.8333333333335,577.0833333333333,156.25,795.8333333333334,-500,900" transform="matrix(1,0,0,1,0,35)" opacity="NaN"></path></g></svg>